<svg xmlns="http://www.w3.org/2000/svg" xmlns:xlink="http://www.w3.org/1999/xlink" width="506" zoomAndPan="magnify" viewBox="0 0 379.5 276.749996" height="369" preserveAspectRatio="xMidYMid meet" version="1.0"><defs><g/><clipPath id="3ccc61e794"><path d="M 0 0.0585938 L 379 0.0585938 L 379 276.441406 L 0 276.441406 Z M 0 0.0585938 " clip-rule="nonzero"/></clipPath><clipPath id="d2e5c523b5"><path d="M 0 0.0585938 L 379 0.0585938 L 379 276.332031 L 0 276.332031 Z M 0 0.0585938 " clip-rule="nonzero"/></clipPath><clipPath id="e2677c341f"><path d="M 0 0.0585938 L 379 0.0585938 L 379 276.332031 L 0 276.332031 Z M 0 0.0585938 " clip-rule="nonzero"/></clipPath><clipPath id="30829ea49d"><rect x="0" width="379" y="0" height="277"/></clipPath><clipPath id="200ae71a22"><path d="M 87 94 L 107 94 L 107 115 L 87 115 Z M 87 94 " clip-rule="nonzero"/></clipPath><clipPath id="e207475575"><path d="M 59.121094 105.042969 C 59.121094 118.894531 70.351562 130.125 84.203125 130.125 L 105.332031 130.125 C 119.183594 130.125 130.414062 118.894531 130.414062 105.042969 C 130.414062 91.191406 119.183594 79.960938 105.332031 79.960938 L 84.203125 79.960938 C 70.351562 79.960938 59.121094 91.191406 59.121094 105.042969 Z M 59.121094 105.042969 " clip-rule="nonzero"/></clipPath><clipPath id="54cf02a39d"><path d="M 87 94 L 107 94 L 107 107 L 87 107 Z M 87 94 " clip-rule="nonzero"/></clipPath><clipPath id="c5d4bb38e2"><path d="M 59.121094 105.042969 C 59.121094 118.894531 70.351562 130.125 84.203125 130.125 L 105.332031 130.125 C 119.183594 130.125 130.414062 118.894531 130.414062 105.042969 C 130.414062 91.191406 119.183594 79.960938 105.332031 79.960938 L 84.203125 79.960938 C 70.351562 79.960938 59.121094 91.191406 59.121094 105.042969 Z M 59.121094 105.042969 " clip-rule="nonzero"/></clipPath><clipPath id="78dc48f96d"><path d="M 59.121094 80 L 130.277344 80 L 130.277344 130 L 59.121094 130 Z M 59.121094 80 " clip-rule="nonzero"/></clipPath><clipPath id="089252b408"><path d="M 59.121094 105.042969 C 59.121094 118.894531 70.351562 130.125 84.203125 130.125 L 105.332031 130.125 C 119.183594 130.125 130.414062 118.894531 130.414062 105.042969 C 130.414062 91.191406 119.183594 79.960938 105.332031 79.960938 L 84.203125 79.960938 C 70.351562 79.960938 59.121094 91.191406 59.121094 105.042969 Z M 59.121094 105.042969 " clip-rule="nonzero"/></clipPath><clipPath id="e7209e18d7"><path d="M 144.371094 117.976562 L 226.761719 117.976562 L 226.761719 200.371094 L 144.371094 200.371094 Z M 144.371094 117.976562 " clip-rule="nonzero"/></clipPath><clipPath id="1fd83aba5f"><path d="M 234.644531 163.007812 L 307.296875 163.007812 L 307.296875 235.664062 L 234.644531 235.664062 Z M 234.644531 163.007812 " clip-rule="nonzero"/></clipPath><clipPath id="9cda777770"><path d="M 234.644531 199.460938 C 234.644531 219.59375 250.964844 235.914062 271.097656 235.914062 C 291.230469 235.914062 307.550781 219.59375 307.550781 199.460938 C 307.550781 179.328125 291.230469 163.007812 271.097656 163.007812 C 250.964844 163.007812 234.644531 179.328125 234.644531 199.460938 Z M 234.644531 199.460938 " clip-rule="nonzero"/></clipPath><clipPath id="7abdf05d9e"><path d="M 235 190 L 307 190 L 307 209 L 235 209 Z M 235 190 " clip-rule="nonzero"/></clipPath><clipPath id="881cf4691f"><path d="M 234.644531 199.460938 C 234.644531 219.59375 250.964844 235.914062 271.097656 235.914062 C 291.230469 235.914062 307.550781 219.59375 307.550781 199.460938 C 307.550781 179.328125 291.230469 163.007812 271.097656 163.007812 C 250.964844 163.007812 234.644531 179.328125 234.644531 199.460938 Z M 234.644531 199.460938 " clip-rule="nonzero"/></clipPath><clipPath id="9454084d36"><path d="M 252 190 L 261 190 L 261 209 L 252 209 Z M 252 190 " clip-rule="nonzero"/></clipPath><clipPath id="1f5028050e"><path d="M 234.644531 199.460938 C 234.644531 219.59375 250.964844 235.914062 271.097656 235.914062 C 291.230469 235.914062 307.550781 219.59375 307.550781 199.460938 C 307.550781 179.328125 291.230469 163.007812 271.097656 163.007812 C 250.964844 163.007812 234.644531 179.328125 234.644531 199.460938 Z M 234.644531 199.460938 " clip-rule="nonzero"/></clipPath><clipPath id="547ce99efe"><path d="M 81.492188 176.632812 L 130.175781 176.632812 L 130.175781 225.320312 L 81.492188 225.320312 Z M 81.492188 176.632812 " clip-rule="nonzero"/></clipPath><clipPath id="5db9358349"><path d="M 81.492188 201.09375 C 81.492188 214.605469 92.441406 225.554688 105.953125 225.554688 C 119.460938 225.554688 130.414062 214.605469 130.414062 201.09375 C 130.414062 187.585938 119.460938 176.632812 105.953125 176.632812 C 92.441406 176.632812 81.492188 187.585938 81.492188 201.09375 Z M 81.492188 201.09375 " clip-rule="nonzero"/></clipPath><clipPath id="50bbacd6b9"><path d="M 83 197 L 129 197 L 129 204 L 83 204 Z M 83 197 " clip-rule="nonzero"/></clipPath><clipPath id="df9248f06f"><path d="M 81.492188 201.09375 C 81.492188 214.605469 92.441406 225.554688 105.953125 225.554688 C 119.460938 225.554688 130.414062 214.605469 130.414062 201.09375 C 130.414062 187.585938 119.460938 176.632812 105.953125 176.632812 C 92.441406 176.632812 81.492188 187.585938 81.492188 201.09375 Z M 81.492188 201.09375 " clip-rule="nonzero"/></clipPath><clipPath id="b7a898d3f8"><path d="M 234.644531 89.160156 L 276.589844 89.160156 L 276.589844 131.101562 L 234.644531 131.101562 Z M 234.644531 89.160156 " clip-rule="nonzero"/></clipPath><clipPath id="3e89ce5890"><path d="M 234.644531 110.132812 C 234.644531 121.714844 244.03125 131.101562 255.617188 131.101562 C 261.179688 131.101562 266.511719 128.894531 270.445312 124.960938 C 274.378906 121.027344 276.589844 115.691406 276.589844 110.132812 C 276.589844 104.570312 274.378906 99.234375 270.445312 95.300781 C 266.511719 91.367188 261.179688 89.160156 255.617188 89.160156 C 244.03125 89.160156 234.644531 98.546875 234.644531 110.132812 Z M 234.644531 110.132812 " clip-rule="nonzero"/></clipPath><clipPath id="621e27db2d"><path d="M 239 101 L 272 101 L 272 122 L 239 122 Z M 239 101 " clip-rule="nonzero"/></clipPath><clipPath id="e7fc4742ae"><path d="M 234.644531 110.132812 C 234.644531 121.714844 244.03125 131.101562 255.617188 131.101562 C 261.179688 131.101562 266.511719 128.894531 270.445312 124.960938 C 274.378906 121.027344 276.589844 115.691406 276.589844 110.132812 C 276.589844 104.570312 274.378906 99.234375 270.445312 95.300781 C 266.511719 91.367188 261.179688 89.160156 255.617188 89.160156 C 244.03125 89.160156 234.644531 98.546875 234.644531 110.132812 Z M 234.644531 110.132812 " clip-rule="nonzero"/></clipPath></defs><g clip-path="url(#3ccc61e794)"><path fill="#ffffff" d="M 0 0.0585938 L 379 0.0585938 L 379 276.441406 L 0 276.441406 Z M 0 0.0585938 " fill-opacity="1" fill-rule="nonzero"/></g><g clip-path="url(#d2e5c523b5)"><g transform="matrix(1, 0, 0, 1, 0, -0.000000000000005357)"><g clip-path="url(#30829ea49d)"><g clip-path="url(#e2677c341f)"><path fill="#ffffff" d="M 0 0.0585938 L 378.796875 0.0585938 L 378.796875 276.332031 L 0 276.332031 Z M 0 0.0585938 " fill-opacity="1" fill-rule="nonzero"/></g></g></g></g><g clip-path="url(#200ae71a22)"><g clip-path="url(#e207475575)"><path fill="#ffffff" d="M 106.558594 104.265625 C 100.054688 100.78125 93.824219 97.578125 87.457031 94.234375 L 87.457031 114.242188 C 94.15625 110.59375 101.21875 107.25 106.585938 104.265625 Z M 106.558594 104.265625 " fill-opacity="1" fill-rule="nonzero"/></g></g><g clip-path="url(#54cf02a39d)"><g clip-path="url(#c5d4bb38e2)"><path fill="#e8e0e0" d="M 106.558594 104.265625 C 100.054688 100.78125 87.457031 94.234375 87.457031 94.234375 L 104.25 105.546875 C 104.253906 105.546875 101.191406 107.25 106.558594 104.265625 Z M 106.558594 104.265625 " fill-opacity="1" fill-rule="nonzero"/></g></g><g clip-path="url(#78dc48f96d)"><g clip-path="url(#089252b408)"><path fill="#cd201f" d="M 88.679688 129.90625 C 75.164062 129.65625 70.550781 129.433594 67.714844 128.847656 C 65.792969 128.457031 64.125 127.59375 62.902344 126.339844 C 61.957031 125.390625 61.207031 123.945312 60.621094 121.9375 C 60.121094 120.261719 59.925781 118.871094 59.648438 115.46875 C 59.222656 107.796875 59.121094 101.523438 59.648438 94.511719 C 60.082031 90.640625 60.292969 86.042969 63.179688 83.363281 C 64.542969 82.109375 66.128906 81.300781 67.90625 80.964844 C 70.6875 80.4375 82.535156 80.019531 94.796875 80.019531 C 107.035156 80.019531 118.90625 80.4375 121.6875 80.964844 C 123.914062 81.382812 125.996094 82.636719 127.222656 84.253906 C 129.855469 88.40625 129.902344 93.566406 130.167969 97.605469 C 130.277344 99.527344 130.277344 110.453125 130.167969 112.378906 C 129.753906 118.757812 129.417969 121.015625 128.472656 123.355469 C 127.886719 124.835938 127.390625 125.613281 126.527344 126.480469 C 125.140625 127.839844 123.488281 128.6875 121.574219 129.015625 C 109.882812 129.894531 99.949219 130.085938 88.679688 129.90625 Z M 106.589844 104.265625 C 100.082031 100.78125 93.851562 97.550781 87.484375 94.203125 L 87.484375 114.214844 C 94.183594 110.566406 101.25 107.21875 106.617188 104.238281 Z M 106.589844 104.265625 " fill-opacity="1" fill-rule="nonzero"/></g></g><g clip-path="url(#e7209e18d7)"><path fill="#ff4500" d="M 226.761719 159.175781 C 226.761719 160.523438 226.695312 161.871094 226.5625 163.210938 C 226.429688 164.554688 226.234375 165.886719 225.96875 167.210938 C 225.707031 168.535156 225.378906 169.839844 224.988281 171.132812 C 224.59375 172.421875 224.140625 173.691406 223.625 174.9375 C 223.109375 176.183594 222.53125 177.402344 221.898438 178.59375 C 221.261719 179.785156 220.566406 180.9375 219.816406 182.0625 C 219.070312 183.183594 218.265625 184.265625 217.410156 185.308594 C 216.554688 186.351562 215.648438 187.351562 214.695312 188.304688 C 213.742188 189.257812 212.742188 190.164062 211.699219 191.019531 C 210.65625 191.875 209.574219 192.675781 208.453125 193.425781 C 207.332031 194.175781 206.175781 194.871094 204.984375 195.503906 C 203.792969 196.140625 202.578125 196.71875 201.332031 197.234375 C 200.082031 197.75 198.816406 198.203125 197.523438 198.597656 C 196.234375 198.988281 194.925781 199.316406 193.601562 199.578125 C 192.277344 199.839844 190.945312 200.039062 189.601562 200.171875 C 188.261719 200.304688 186.914062 200.371094 185.566406 200.371094 C 184.214844 200.371094 182.871094 200.304688 181.527344 200.171875 C 180.183594 200.039062 178.851562 199.839844 177.527344 199.578125 C 176.207031 199.316406 174.898438 198.988281 173.605469 198.597656 C 172.316406 198.203125 171.046875 197.75 169.800781 197.234375 C 168.554688 196.71875 167.335938 196.140625 166.144531 195.503906 C 164.957031 194.871094 163.800781 194.175781 162.679688 193.425781 C 161.554688 192.675781 160.472656 191.875 159.429688 191.019531 C 158.386719 190.164062 157.390625 189.257812 156.433594 188.304688 C 155.480469 187.351562 154.578125 186.351562 153.71875 185.308594 C 152.863281 184.265625 152.0625 183.183594 151.3125 182.0625 C 150.5625 180.9375 149.871094 179.785156 149.234375 178.59375 C 148.597656 177.402344 148.023438 176.183594 147.503906 174.9375 C 146.988281 173.691406 146.535156 172.421875 146.144531 171.132812 C 145.75 169.839844 145.425781 168.535156 145.160156 167.210938 C 144.898438 165.886719 144.699219 164.554688 144.566406 163.210938 C 144.4375 161.871094 144.371094 160.523438 144.371094 159.175781 C 144.371094 157.824219 144.4375 156.480469 144.566406 155.136719 C 144.699219 153.792969 144.898438 152.460938 145.160156 151.136719 C 145.425781 149.8125 145.75 148.507812 146.144531 147.214844 C 146.535156 145.925781 146.988281 144.65625 147.503906 143.410156 C 148.023438 142.164062 148.597656 140.945312 149.234375 139.753906 C 149.871094 138.566406 150.5625 137.410156 151.3125 136.285156 C 152.0625 135.164062 152.863281 134.082031 153.71875 133.039062 C 154.578125 131.996094 155.480469 131 156.433594 130.042969 C 157.390625 129.089844 158.386719 128.183594 159.429688 127.328125 C 160.472656 126.472656 161.554688 125.671875 162.679688 124.921875 C 163.800781 124.171875 164.957031 123.480469 166.144531 122.84375 C 167.335938 122.207031 168.554688 121.628906 169.800781 121.113281 C 171.046875 120.597656 172.316406 120.144531 173.605469 119.753906 C 174.898438 119.359375 176.207031 119.03125 177.527344 118.769531 C 178.851562 118.507812 180.183594 118.308594 181.527344 118.175781 C 182.871094 118.042969 184.214844 117.976562 185.566406 117.976562 C 186.914062 117.976562 188.261719 118.042969 189.601562 118.175781 C 190.945312 118.308594 192.277344 118.507812 193.601562 118.769531 C 194.925781 119.03125 196.234375 119.359375 197.523438 119.753906 C 198.816406 120.144531 200.082031 120.597656 201.332031 121.113281 C 202.578125 121.628906 203.792969 122.207031 204.984375 122.84375 C 206.175781 123.480469 207.332031 124.171875 208.453125 124.921875 C 209.574219 125.671875 210.65625 126.472656 211.699219 127.328125 C 212.742188 128.183594 213.742188 129.089844 214.695312 130.042969 C 215.648438 131 216.554688 131.996094 217.410156 133.039062 C 218.265625 134.082031 219.070312 135.164062 219.816406 136.285156 C 220.566406 137.410156 221.261719 138.566406 221.898438 139.753906 C 222.53125 140.945312 223.109375 142.164062 223.625 143.410156 C 224.140625 144.65625 224.59375 145.925781 224.988281 147.214844 C 225.378906 148.507812 225.707031 149.8125 225.96875 151.136719 C 226.234375 152.460938 226.429688 153.792969 226.5625 155.136719 C 226.695312 156.480469 226.761719 157.824219 226.761719 159.175781 Z M 226.761719 159.175781 " fill-opacity="1" fill-rule="nonzero"/></g><path fill="#ffffff" d="M 213.042969 159.175781 C 213.050781 159.738281 212.980469 160.300781 212.832031 160.847656 C 212.683594 161.390625 212.460938 161.914062 212.164062 162.394531 C 211.871094 162.878906 211.511719 163.316406 211.09375 163.699219 C 210.679688 164.082031 210.210938 164.402344 209.707031 164.652344 C 209.71875 164.804688 209.726562 164.953125 209.730469 165.105469 C 209.742188 165.410156 209.742188 165.710938 209.730469 166.011719 C 209.726562 166.164062 209.71875 166.316406 209.707031 166.464844 C 209.707031 175.695312 198.953125 183.191406 185.6875 183.191406 C 172.425781 183.191406 161.671875 175.695312 161.671875 166.464844 C 161.660156 166.316406 161.652344 166.164062 161.644531 166.011719 C 161.632812 165.710938 161.632812 165.410156 161.644531 165.105469 C 161.652344 164.953125 161.660156 164.804688 161.671875 164.652344 C 160.871094 164.285156 160.183594 163.765625 159.609375 163.09375 C 159.035156 162.421875 158.628906 161.664062 158.390625 160.8125 C 158.152344 159.964844 158.105469 159.101562 158.246094 158.230469 C 158.386719 157.359375 158.703125 156.558594 159.195312 155.828125 C 159.6875 155.09375 160.3125 154.5 161.066406 154.042969 C 161.820312 153.585938 162.636719 153.308594 163.511719 153.210938 C 164.390625 153.113281 165.246094 153.203125 166.085938 153.480469 C 166.921875 153.761719 167.660156 154.203125 168.304688 154.808594 C 169.484375 154.007812 170.71875 153.296875 172 152.675781 C 173.28125 152.054688 174.609375 151.527344 175.964844 151.097656 C 177.324219 150.671875 178.714844 150.339844 180.121094 150.113281 C 181.523438 149.886719 182.945312 149.761719 184.371094 149.738281 L 187.417969 135.445312 C 187.453125 135.28125 187.519531 135.121094 187.617188 134.984375 C 187.710938 134.84375 187.832031 134.722656 187.972656 134.632812 C 188.117188 134.542969 188.273438 134.476562 188.441406 134.449219 C 188.609375 134.417969 188.777344 134.421875 188.941406 134.457031 L 199.035156 136.476562 C 200.054688 134.726562 202.191406 133.976562 204.082031 134.703125 C 205.96875 135.433594 207.046875 137.425781 206.625 139.40625 C 206.203125 141.386719 204.40625 142.765625 202.386719 142.660156 C 200.363281 142.558594 198.71875 141 198.5 138.988281 L 189.683594 137.132812 L 187.007812 149.988281 C 188.414062 150.015625 189.816406 150.148438 191.207031 150.378906 C 194 150.847656 196.671875 151.699219 199.21875 152.941406 C 200.484375 153.558594 201.703125 154.261719 202.867188 155.054688 C 203.722656 154.234375 204.730469 153.710938 205.894531 153.488281 C 207.058594 153.261719 208.191406 153.375 209.289062 153.820312 C 210.386719 154.261719 211.277344 154.96875 211.957031 155.941406 C 212.636719 156.910156 213 157.988281 213.042969 159.175781 Z M 172.160156 164.871094 C 172.367188 165.371094 172.671875 165.824219 173.054688 166.207031 C 173.4375 166.589844 173.890625 166.890625 174.390625 167.101562 C 174.894531 167.308594 175.421875 167.414062 175.964844 167.414062 C 177.632812 167.414062 179.132812 166.410156 179.773438 164.871094 C 180.410156 163.332031 180.058594 161.558594 178.878906 160.382812 C 177.699219 159.203125 175.929688 158.847656 174.390625 159.488281 C 172.851562 160.125 171.847656 161.628906 171.847656 163.292969 C 171.847656 163.835938 171.953125 164.371094 172.160156 164.871094 Z M 195.753906 174.757812 C 195.964844 174.554688 196.085938 174.273438 196.089844 173.976562 C 196.09375 173.683594 195.980469 173.398438 195.773438 173.1875 C 195.570312 172.976562 195.289062 172.855469 194.992188 172.851562 C 194.699219 172.847656 194.414062 172.960938 194.175781 173.140625 C 193.554688 173.585938 192.902344 173.972656 192.214844 174.308594 C 191.527344 174.644531 190.816406 174.917969 190.085938 175.132812 C 189.351562 175.34375 188.605469 175.496094 187.847656 175.582031 C 187.089844 175.671875 186.328125 175.695312 185.566406 175.652344 C 184.804688 175.6875 184.042969 175.65625 183.289062 175.5625 C 182.53125 175.464844 181.789062 175.308594 181.058594 175.085938 C 180.332031 174.867188 179.621094 174.585938 178.941406 174.246094 C 178.261719 173.90625 177.609375 173.507812 176.996094 173.058594 C 176.785156 172.882812 176.511719 172.792969 176.238281 172.804688 C 175.960938 172.820312 175.699219 172.933594 175.503906 173.128906 C 175.308594 173.324219 175.191406 173.585938 175.179688 173.863281 C 175.167969 174.136719 175.257812 174.410156 175.429688 174.621094 C 176.15625 175.167969 176.925781 175.648438 177.730469 176.0625 C 178.539062 176.476562 179.378906 176.820312 180.242188 177.089844 C 181.109375 177.359375 181.996094 177.554688 182.894531 177.675781 C 183.792969 177.792969 184.703125 177.832031 185.605469 177.792969 C 186.511719 177.832031 187.417969 177.792969 188.316406 177.675781 C 190.132812 177.433594 191.855469 176.898438 193.480469 176.0625 C 194.289062 175.648438 195.058594 175.167969 195.78125 174.621094 Z M 195 167.742188 C 195.558594 167.75 196.113281 167.640625 196.628906 167.425781 C 197.144531 167.210938 197.609375 166.894531 198 166.492188 C 198.386719 166.09375 198.691406 165.617188 198.890625 165.09375 C 199.09375 164.566406 199.183594 164.023438 199.160156 163.457031 C 199.160156 161.792969 198.15625 160.289062 196.617188 159.652344 C 195.078125 159.015625 193.304688 159.367188 192.128906 160.546875 C 190.949219 161.722656 190.597656 163.496094 191.234375 165.035156 C 191.871094 166.574219 193.375 167.578125 195.039062 167.578125 Z M 195 167.742188 " fill-opacity="1" fill-rule="nonzero"/><g clip-path="url(#1fd83aba5f)"><g clip-path="url(#9cda777770)"><path fill="#ffffff" d="M 234.644531 163.007812 L 307.296875 163.007812 L 307.296875 235.664062 L 234.644531 235.664062 Z M 234.644531 163.007812 " fill-opacity="1" fill-rule="evenodd"/></g></g><g clip-path="url(#7abdf05d9e)"><g clip-path="url(#881cf4691f)"><path fill="#000000" d="M 256.445312 208.5 C 254.382812 208.5 252.410156 207.34375 251.128906 205.765625 C 249.675781 203.96875 248.964844 201.652344 248.964844 199.359375 C 248.964844 197.15625 249.617188 194.9375 250.964844 193.179688 C 252.292969 191.457031 254.292969 190.222656 256.515625 190.222656 C 258.558594 190.222656 260.519531 191.394531 261.777344 192.953125 C 263.230469 194.746094 263.949219 197.070312 263.949219 199.363281 C 263.949219 201.5625 263.292969 203.777344 261.949219 205.535156 C 260.636719 207.246094 258.648438 208.5 256.445312 208.5 Z M 235.710938 190.601562 L 241.925781 190.601562 L 241.925781 190.777344 L 240.398438 190.777344 L 245.039062 203.476562 L 248.953125 190.777344 L 247.414062 190.777344 L 247.414062 190.601562 L 250.765625 190.601562 L 250.765625 190.777344 L 249.285156 190.777344 L 243.765625 208.332031 L 237.347656 190.777344 L 235.710938 190.777344 Z M 277.554688 190.292969 L 277.554688 196.394531 L 277.414062 196.394531 C 277.152344 195.191406 276.78125 194.023438 276.136719 192.964844 C 275.371094 191.726562 274.152344 190.332031 272.5625 190.332031 C 268.90625 190.332031 268.574219 196.878906 268.574219 199.378906 C 268.574219 201.613281 268.753906 203.917969 269.566406 206.015625 C 270.132812 207.484375 270.957031 208.203125 272.484375 208.203125 C 273.699219 208.203125 274.988281 207.589844 275.632812 206.539062 C 275.800781 206.261719 275.8125 205.957031 275.8125 205.644531 L 275.8125 200.929688 L 274.214844 200.929688 L 274.214844 200.746094 L 280.058594 200.746094 L 280.058594 200.929688 L 278.691406 200.929688 L 278.691406 207.980469 L 278.574219 207.980469 C 278.226562 207.40625 277.683594 207.027344 276.988281 207.027344 C 276.484375 207.027344 275.992188 207.207031 275.550781 207.449219 L 275.15625 207.667969 C 274.261719 208.0625 273.40625 208.351562 272.414062 208.351562 C 267.878906 208.351562 265.464844 203.515625 265.464844 199.503906 C 265.464844 196.574219 266.582031 193.4375 268.960938 191.601562 C 270.027344 190.777344 271.316406 190.171875 272.691406 190.171875 C 273.226562 190.171875 273.757812 190.339844 274.253906 190.535156 L 274.617188 190.675781 C 275.035156 190.832031 275.488281 190.976562 275.933594 190.976562 C 276.492188 190.976562 276.988281 190.613281 277.417969 190.292969 Z M 279.300781 190.601562 L 285.535156 190.601562 L 285.535156 190.78125 L 283.878906 190.78125 L 283.878906 204.316406 C 283.878906 206.433594 286.0625 207.726562 287.972656 207.726562 C 290.03125 207.726562 291.761719 206.296875 291.761719 204.195312 L 291.761719 190.777344 L 289.808594 190.777344 L 289.808594 190.601562 L 305.898438 190.601562 L 305.898438 196.878906 L 305.777344 196.878906 C 305.589844 195.21875 305.269531 193.511719 304.128906 192.214844 C 302.972656 190.90625 301.398438 190.777344 299.785156 190.777344 L 298.039062 190.777344 L 298.039062 198.851562 C 298.398438 198.890625 298.761719 198.917969 299.125 198.917969 C 301.316406 198.917969 301.886719 197.410156 301.980469 195.542969 L 302.140625 195.542969 L 302.140625 202.628906 L 301.980469 202.628906 C 301.707031 200.933594 300.960938 199.121094 298.972656 199.121094 C 298.660156 199.121094 298.355469 199.140625 298.039062 199.167969 L 298.039062 207.800781 L 300.652344 207.800781 C 302.007812 207.800781 303.355469 207.214844 304.3125 206.269531 C 305.128906 205.464844 305.699219 204.417969 305.898438 203.285156 C 306.003906 202.652344 306.058594 202.007812 306.089844 201.371094 L 306.230469 201.371094 L 306.230469 207.980469 L 293.652344 207.980469 L 293.652344 207.800781 L 295.117188 207.800781 L 295.117188 190.777344 L 292.023438 190.777344 L 292.023438 204.246094 C 292.023438 207.027344 289.378906 208.261719 286.902344 208.261719 C 284.097656 208.261719 281.003906 206.902344 281.003906 203.695312 L 281.003906 190.777344 L 279.300781 190.777344 Z M 279.300781 190.601562 " fill-opacity="1" fill-rule="evenodd"/></g></g><g clip-path="url(#9454084d36)"><g clip-path="url(#1f5028050e)"><path fill="#ffffff" d="M 260.792969 199.359375 C 260.792969 196.820312 259.886719 190.484375 256.457031 190.484375 C 253.015625 190.484375 252.121094 196.816406 252.121094 199.359375 C 252.121094 201.898438 253.023438 208.238281 256.457031 208.238281 C 259.886719 208.234375 260.792969 201.894531 260.792969 199.359375 Z M 260.792969 199.359375 " fill-opacity="1" fill-rule="evenodd"/></g></g><g clip-path="url(#547ce99efe)"><g clip-path="url(#5db9358349)"><path fill="#fcf4f6" d="M 81.492188 176.632812 L 130.410156 176.632812 L 130.410156 225.550781 L 81.492188 225.550781 Z M 81.492188 176.632812 " fill-opacity="1" fill-rule="evenodd"/></g></g><g clip-path="url(#50bbacd6b9)"><g clip-path="url(#df9248f06f)"><path fill="#cd5241" d="M 95.699219 199.8125 C 95.699219 199.8125 95.796875 200.171875 95.796875 200.890625 L 95.796875 202.980469 C 95.796875 202.980469 95.796875 203.4375 95.699219 203.699219 L 97.527344 203.699219 C 97.527344 203.699219 97.496094 203.402344 97.496094 202.980469 C 97.496094 203.011719 97.460938 200.890625 97.460938 200.890625 C 97.460938 200.890625 97.429688 200.269531 98.148438 200.203125 C 98.148438 200.203125 98.539062 200.203125 98.671875 200.269531 L 98.996094 199.0625 C 98.996094 199.0625 98.246094 198.765625 97.722656 199.386719 C 97.691406 199.386719 97.59375 199.519531 97.527344 199.617188 L 97.496094 199.648438 C 97.496094 199.648438 97.460938 199.679688 97.460938 199.648438 L 97.460938 198.960938 Z M 120.710938 199.8125 C 120.710938 199.8125 120.808594 200.171875 120.808594 200.890625 L 120.808594 202.980469 C 120.808594 202.980469 120.808594 203.46875 120.742188 203.699219 L 122.539062 203.699219 C 122.539062 203.699219 122.507812 203.402344 122.507812 202.980469 L 122.507812 200.890625 C 122.507812 200.890625 122.472656 200.269531 123.160156 200.203125 C 123.160156 200.203125 123.582031 200.203125 123.683594 200.269531 L 124.007812 199.0625 C 124.007812 199.0625 123.257812 198.765625 122.734375 199.386719 C 122.703125 199.386719 122.605469 199.519531 122.570312 199.617188 C 122.539062 199.617188 122.539062 199.648438 122.503906 199.679688 C 122.503906 199.679688 122.472656 199.679688 122.472656 199.648438 L 122.472656 198.960938 Z M 102.980469 201.378906 L 104.1875 201.050781 C 104.1875 201.050781 104.121094 199.8125 103.503906 199.878906 C 103.503906 199.878906 102.949219 199.84375 102.949219 201.019531 C 102.949219 201.019531 102.914062 201.3125 102.980469 201.378906 Z M 103.078125 202.066406 C 103.601562 203.730469 105.234375 202.71875 105.234375 202.71875 L 105.234375 203.46875 C 104.023438 204.054688 102.949219 203.730469 102.914062 203.695312 C 101.054688 203.109375 101.28125 201.183594 101.28125 201.183594 C 101.574219 198.765625 103.730469 199.09375 103.730469 199.09375 C 105.753906 199.222656 105.753906 201.3125 105.753906 201.3125 Z M 125.476562 201.378906 L 126.6875 201.050781 C 126.6875 201.050781 126.621094 199.8125 126 199.878906 C 126 199.878906 125.445312 199.84375 125.445312 201.019531 C 125.445312 201.019531 125.414062 201.3125 125.476562 201.378906 Z M 125.574219 202.066406 C 126.097656 203.699219 127.730469 202.71875 127.730469 202.71875 L 127.730469 203.46875 C 126.488281 204.054688 125.445312 203.730469 125.414062 203.695312 C 123.550781 203.109375 123.78125 201.183594 123.78125 201.183594 C 124.074219 198.765625 126.226562 199.09375 126.226562 199.09375 C 128.253906 199.222656 128.253906 201.3125 128.253906 201.3125 Z M 85.347656 199.0625 L 83.648438 199.8125 C 83.648438 199.8125 83.746094 200.171875 83.746094 200.5625 L 83.746094 202.980469 C 83.746094 202.980469 83.746094 203.371094 83.648438 203.695312 L 85.414062 203.695312 C 85.414062 203.695312 85.347656 203.566406 85.347656 202.980469 L 85.347656 201.183594 C 85.347656 201.183594 85.347656 200.855469 85.378906 200.660156 C 85.378906 200.628906 85.542969 200.234375 85.902344 200.300781 C 85.902344 200.300781 86.328125 200.269531 86.292969 200.890625 L 86.292969 202.980469 C 86.292969 202.980469 86.261719 203.535156 86.230469 203.695312 L 87.992188 203.695312 C 87.992188 203.695312 87.894531 203.304688 87.894531 202.980469 C 87.863281 202.980469 87.894531 201.183594 87.894531 201.183594 C 87.894531 201.183594 87.894531 200.660156 88.027344 200.53125 C 88.027344 200.53125 88.15625 200.234375 88.546875 200.269531 C 88.546875 200.269531 88.90625 200.300781 88.84375 200.890625 L 88.84375 202.980469 C 88.84375 202.980469 88.84375 203.535156 88.777344 203.695312 L 90.539062 203.695312 C 90.539062 203.695312 90.441406 203.4375 90.441406 202.980469 L 90.441406 200.367188 C 90.441406 200.367188 90.539062 199.0625 89.332031 199.125 C 89.332031 199.125 88.484375 199.027344 87.894531 199.8125 C 87.894531 199.8125 87.667969 198.929688 86.394531 199.160156 C 86.394531 199.160156 85.738281 199.257812 85.347656 199.8125 Z M 112.90625 197.429688 C 112.9375 197.429688 111.109375 198.34375 111.109375 198.34375 C 111.109375 198.34375 111.242188 198.503906 111.242188 198.996094 L 111.242188 202.980469 C 111.242188 202.980469 111.242188 203.5 111.175781 203.695312 L 113.003906 203.695312 C 113.003906 203.695312 112.9375 203.535156 112.90625 202.980469 Z M 100.695312 198.960938 L 99.027344 199.746094 L 99.027344 202.980469 C 99.027344 202.980469 99.027344 203.566406 98.929688 203.695312 L 100.757812 203.695312 C 100.757812 203.695312 100.695312 203.273438 100.695312 202.980469 Z M 98.867188 198.246094 C 98.867188 197.820312 99.289062 197.460938 99.84375 197.460938 C 100.367188 197.460938 100.792969 197.820312 100.792969 198.246094 C 100.792969 198.667969 100.367188 199.027344 99.84375 199.027344 C 99.289062 199.027344 98.867188 198.667969 98.867188 198.246094 Z M 93.414062 202.78125 L 93.054688 201.410156 C 93.054688 201.410156 92.335938 201.574219 92.433594 202.359375 C 92.433594 202.359375 92.433594 202.914062 92.988281 202.945312 C 92.988281 202.945312 93.316406 202.914062 93.414062 202.78125 Z M 91.324219 199.320312 C 91.324219 199.320312 92.304688 198.765625 93.640625 199.289062 C 93.640625 199.320312 94.230469 199.519531 94.523438 200.628906 L 95.011719 202.75 C 95.011719 202.75 95.078125 203.042969 95.4375 202.980469 L 95.4375 203.695312 C 95.4375 203.695312 94.394531 203.925781 93.738281 203.304688 C 93.738281 203.304688 92.597656 204.316406 91.324219 203.371094 C 91.324219 203.339844 90.246094 202.523438 91.324219 201.378906 C 91.355469 201.378906 91.683594 200.921875 92.890625 200.792969 C 92.890625 200.792969 92.921875 199.386719 91.324219 200.007812 Z M 115.910156 202.75 L 115.519531 201.410156 C 115.519531 201.410156 114.832031 201.542969 114.898438 202.324219 C 114.898438 202.324219 114.898438 202.882812 115.484375 202.945312 C 115.484375 202.945312 115.8125 202.914062 115.910156 202.75 Z M 113.820312 199.289062 C 113.820312 199.289062 114.800781 198.734375 116.105469 199.289062 C 116.105469 199.289062 116.726562 199.519531 117.019531 200.59375 C 116.988281 200.628906 117.511719 202.75 117.511719 202.75 C 117.511719 202.75 117.542969 203.042969 117.933594 202.945312 L 117.933594 203.664062 C 117.933594 203.664062 116.859375 203.925781 116.203125 203.273438 C 116.203125 203.273438 115.0625 204.285156 113.820312 203.339844 C 113.820312 203.304688 112.710938 202.488281 113.820312 201.378906 C 113.855469 201.378906 114.148438 200.921875 115.386719 200.757812 C 115.355469 200.757812 115.386719 199.386719 113.820312 199.976562 Z M 119.992188 198.960938 L 118.328125 199.746094 L 118.328125 202.980469 C 118.328125 202.980469 118.328125 203.566406 118.230469 203.695312 L 120.089844 203.695312 C 120.089844 203.695312 119.992188 203.273438 119.992188 202.980469 Z M 118.195312 198.246094 C 118.195312 197.820312 118.621094 197.460938 119.144531 197.460938 C 119.699219 197.460938 120.121094 197.820312 120.121094 198.246094 C 120.121094 198.667969 119.699219 199.027344 119.144531 199.027344 C 118.621094 199.027344 118.195312 198.667969 118.195312 198.246094 Z M 110.75 199.289062 L 110.75 200.074219 C 110.75 200.074219 109.347656 199.320312 109.054688 200.890625 C 109.054688 200.890625 108.859375 201.804688 109.414062 202.523438 C 109.414062 202.523438 109.871094 203.304688 110.851562 202.847656 L 110.851562 203.632812 C 110.851562 203.632812 109.476562 204.121094 108.464844 203.566406 C 108.433594 203.566406 106.996094 202.816406 107.453125 200.855469 C 107.453125 200.855469 107.714844 199.191406 109.542969 199.09375 C 109.609375 199.09375 110.328125 199.09375 110.75 199.289062 Z M 110.75 199.289062 " fill-opacity="1" fill-rule="evenodd"/></g></g><g clip-path="url(#b7a898d3f8)"><g clip-path="url(#3e89ce5890)"><path fill="#eceff1" d="M 240.953125 89.160156 L 270.28125 89.160156 C 270.695312 89.160156 271.105469 89.199219 271.511719 89.28125 C 271.917969 89.359375 272.3125 89.480469 272.695312 89.640625 C 273.078125 89.796875 273.441406 89.992188 273.785156 90.222656 C 274.128906 90.453125 274.449219 90.714844 274.742188 91.007812 C 275.035156 91.300781 275.292969 91.617188 275.523438 91.960938 C 275.753906 92.304688 275.949219 92.671875 276.109375 93.050781 C 276.265625 93.433594 276.386719 93.828125 276.464844 94.234375 C 276.546875 94.640625 276.589844 95.050781 276.589844 95.464844 L 276.589844 124.796875 C 276.589844 125.210938 276.546875 125.621094 276.464844 126.027344 C 276.386719 126.433594 276.265625 126.828125 276.109375 127.210938 C 275.949219 127.59375 275.753906 127.957031 275.523438 128.300781 C 275.292969 128.644531 275.035156 128.960938 274.742188 129.253906 C 274.449219 129.546875 274.128906 129.808594 273.785156 130.039062 C 273.441406 130.269531 273.078125 130.464844 272.695312 130.625 C 272.3125 130.78125 271.917969 130.902344 271.511719 130.980469 C 271.105469 131.0625 270.695312 131.101562 270.28125 131.101562 L 240.953125 131.101562 C 240.535156 131.101562 240.125 131.0625 239.71875 130.980469 C 239.3125 130.902344 238.921875 130.78125 238.539062 130.625 C 238.15625 130.464844 237.792969 130.269531 237.445312 130.039062 C 237.101562 129.808594 236.785156 129.546875 236.492188 129.253906 C 236.199219 128.960938 235.9375 128.644531 235.707031 128.300781 C 235.476562 127.957031 235.28125 127.59375 235.125 127.210938 C 234.964844 126.828125 234.84375 126.433594 234.765625 126.027344 C 234.683594 125.621094 234.644531 125.210938 234.644531 124.796875 L 234.644531 95.464844 C 234.644531 95.050781 234.683594 94.640625 234.765625 94.234375 C 234.84375 93.828125 234.964844 93.433594 235.125 93.050781 C 235.28125 92.671875 235.476562 92.304688 235.707031 91.960938 C 235.9375 91.617188 236.199219 91.300781 236.492188 91.007812 C 236.785156 90.714844 237.101562 90.453125 237.445312 90.222656 C 237.792969 89.992188 238.15625 89.796875 238.539062 89.640625 C 238.921875 89.480469 239.3125 89.359375 239.71875 89.28125 C 240.125 89.199219 240.535156 89.160156 240.953125 89.160156 Z M 240.953125 89.160156 " fill-opacity="1" fill-rule="nonzero"/></g></g><g clip-path="url(#621e27db2d)"><g clip-path="url(#e7fc4742ae)"><path fill="#2f2f2f" d="M 239.3125 101.203125 L 239.230469 101.285156 L 239.230469 101.855469 C 239.230469 102.019531 239.394531 102.101562 239.640625 102.101562 C 241.359375 102.183594 241.359375 102.511719 242.015625 104.070312 L 249.71875 120.863281 C 250.289062 122.089844 251.109375 122.253906 251.847656 120.78125 L 255.699219 113.242188 L 259.300781 120.78125 C 259.957031 122.089844 260.695312 122.171875 261.351562 120.78125 L 268.722656 104.152344 C 269.378906 102.675781 270.363281 102.101562 271.753906 102.101562 C 271.917969 102.101562 272 102.019531 272 101.855469 L 272 101.285156 L 271.917969 101.203125 L 265.117188 101.203125 L 265.035156 101.285156 L 265.035156 101.855469 C 265.035156 102.019531 265.199219 102.101562 265.363281 102.101562 C 266.265625 102.101562 267.820312 102.265625 267.167969 103.742188 L 261.1875 117.914062 L 260.941406 117.832031 L 257.253906 110.292969 L 260.367188 104.152344 C 261.105469 102.839844 261.269531 102.101562 262.578125 102.101562 C 262.742188 102.101562 262.90625 102.019531 262.90625 101.855469 L 262.90625 101.285156 L 262.824219 101.203125 L 257.335938 101.203125 L 257.253906 101.285156 L 257.253906 101.855469 C 257.253906 102.101562 257.582031 102.101562 257.828125 102.101562 C 259.382812 102.183594 259.21875 102.757812 258.730469 103.742188 L 256.351562 108.492188 L 254.222656 104.070312 C 253.484375 102.675781 253.320312 102.265625 254.386719 102.183594 C 254.714844 102.101562 255.125 102.101562 255.125 101.855469 L 255.125 101.285156 L 255.042969 101.203125 L 249.144531 101.203125 L 249.0625 101.285156 L 249.0625 101.9375 C 249.0625 102.101562 249.226562 102.101562 249.472656 102.101562 C 250.453125 102.265625 250.453125 102.347656 251.4375 104.3125 L 254.878906 111.523438 L 251.683594 117.914062 L 251.4375 117.832031 L 244.882812 103.578125 C 244.226562 102.101562 245.128906 102.183594 246.441406 102.101562 C 246.6875 102.101562 246.6875 102.019531 246.6875 101.855469 L 246.6875 101.285156 L 246.605469 101.203125 Z M 239.3125 101.203125 " fill-opacity="1" fill-rule="nonzero"/></g></g><g fill="#000000" fill-opacity="1"><g transform="translate(27.943324, 47.243145)"><g><path d="M 6.859375 -7.765625 C 6.816406 -8.191406 6.632812 -8.523438 6.3125 -8.765625 C 5.988281 -9.003906 5.550781 -9.125 5 -9.125 C 4.4375 -9.125 4.003906 -9.003906 3.703125 -8.765625 C 3.398438 -8.535156 3.25 -8.25 3.25 -7.90625 C 3.238281 -7.507812 3.40625 -7.210938 3.75 -7.015625 C 4.09375 -6.816406 4.5 -6.660156 4.96875 -6.546875 L 5.953125 -6.3125 C 6.578125 -6.175781 7.132812 -5.972656 7.625 -5.703125 C 8.125 -5.429688 8.515625 -5.082031 8.796875 -4.65625 C 9.078125 -4.226562 9.21875 -3.710938 9.21875 -3.109375 C 9.21875 -2.117188 8.84375 -1.328125 8.09375 -0.734375 C 7.351562 -0.140625 6.316406 0.15625 4.984375 0.15625 C 3.660156 0.15625 2.601562 -0.144531 1.8125 -0.75 C 1.03125 -1.351562 0.625 -2.242188 0.59375 -3.421875 L 2.828125 -3.421875 C 2.867188 -2.878906 3.082031 -2.46875 3.46875 -2.1875 C 3.863281 -1.914062 4.359375 -1.78125 4.953125 -1.78125 C 5.546875 -1.78125 6.015625 -1.898438 6.359375 -2.140625 C 6.710938 -2.390625 6.890625 -2.71875 6.890625 -3.125 C 6.890625 -3.488281 6.726562 -3.769531 6.40625 -3.96875 C 6.082031 -4.164062 5.628906 -4.335938 5.046875 -4.484375 L 3.859375 -4.78125 C 2.929688 -5 2.203125 -5.347656 1.671875 -5.828125 C 1.140625 -6.304688 0.878906 -6.945312 0.890625 -7.75 C 0.878906 -8.40625 1.050781 -8.976562 1.40625 -9.46875 C 1.769531 -9.96875 2.265625 -10.351562 2.890625 -10.625 C 3.515625 -10.90625 4.222656 -11.046875 5.015625 -11.046875 C 5.816406 -11.046875 6.519531 -10.90625 7.125 -10.625 C 7.738281 -10.351562 8.210938 -9.96875 8.546875 -9.46875 C 8.878906 -8.976562 9.050781 -8.410156 9.0625 -7.765625 Z M 6.859375 -7.765625 "/></g></g></g><g fill="#000000" fill-opacity="1"><g transform="translate(37.752818, 47.243145)"><g><path d="M 4.59375 0.15625 C 3.769531 0.15625 3.054688 -0.0195312 2.453125 -0.375 C 1.847656 -0.726562 1.382812 -1.21875 1.0625 -1.84375 C 0.738281 -2.476562 0.578125 -3.21875 0.578125 -4.0625 C 0.578125 -4.90625 0.738281 -5.640625 1.0625 -6.265625 C 1.382812 -6.898438 1.847656 -7.394531 2.453125 -7.75 C 3.054688 -8.101562 3.769531 -8.28125 4.59375 -8.28125 C 5.425781 -8.28125 6.140625 -8.101562 6.734375 -7.75 C 7.335938 -7.394531 7.800781 -6.898438 8.125 -6.265625 C 8.457031 -5.640625 8.625 -4.90625 8.625 -4.0625 C 8.625 -3.21875 8.457031 -2.476562 8.125 -1.84375 C 7.800781 -1.21875 7.335938 -0.726562 6.734375 -0.375 C 6.140625 -0.0195312 5.425781 0.15625 4.59375 0.15625 Z M 4.609375 -1.59375 C 5.171875 -1.59375 5.59375 -1.828125 5.875 -2.296875 C 6.164062 -2.765625 6.3125 -3.359375 6.3125 -4.078125 C 6.3125 -4.785156 6.164062 -5.375 5.875 -5.84375 C 5.59375 -6.3125 5.171875 -6.546875 4.609375 -6.546875 C 4.035156 -6.546875 3.601562 -6.3125 3.3125 -5.84375 C 3.019531 -5.375 2.875 -4.785156 2.875 -4.078125 C 2.875 -3.359375 3.019531 -2.765625 3.3125 -2.296875 C 3.601562 -1.828125 4.035156 -1.59375 4.609375 -1.59375 Z M 4.609375 -1.59375 "/></g></g></g><g fill="#000000" fill-opacity="1"><g transform="translate(46.945224, 47.243145)"><g><path d="M 6.140625 -3.484375 L 6.140625 -8.171875 L 8.40625 -8.171875 L 8.40625 0 L 6.234375 0 L 6.234375 -1.484375 L 6.15625 -1.484375 C 5.96875 -1.003906 5.660156 -0.617188 5.234375 -0.328125 C 4.804688 -0.0351562 4.285156 0.109375 3.671875 0.109375 C 2.847656 0.109375 2.179688 -0.160156 1.671875 -0.703125 C 1.160156 -1.253906 0.90625 -2.007812 0.90625 -2.96875 L 0.90625 -8.171875 L 3.171875 -8.171875 L 3.171875 -3.375 C 3.171875 -2.894531 3.296875 -2.515625 3.546875 -2.234375 C 3.804688 -1.953125 4.15625 -1.8125 4.59375 -1.8125 C 5 -1.8125 5.359375 -1.953125 5.671875 -2.234375 C 5.992188 -2.515625 6.148438 -2.929688 6.140625 -3.484375 Z M 6.140625 -3.484375 "/></g></g></g><g fill="#000000" fill-opacity="1"><g transform="translate(56.259977, 47.243145)"><g><path d="M 0.90625 0 L 0.90625 -8.171875 L 3.109375 -8.171875 L 3.109375 -6.75 L 3.1875 -6.75 C 3.332031 -7.257812 3.578125 -7.644531 3.921875 -7.90625 C 4.273438 -8.164062 4.6875 -8.296875 5.15625 -8.296875 C 5.375 -8.296875 5.578125 -8.265625 5.765625 -8.203125 C 5.953125 -8.148438 6.117188 -8.082031 6.265625 -8 L 5.59375 -6.125 C 5.476562 -6.175781 5.359375 -6.21875 5.234375 -6.25 C 5.109375 -6.289062 4.96875 -6.3125 4.8125 -6.3125 C 4.351562 -6.3125 3.960938 -6.15625 3.640625 -5.84375 C 3.328125 -5.53125 3.171875 -5.125 3.171875 -4.625 L 3.171875 0 Z M 0.90625 0 "/></g></g></g><g fill="#000000" fill-opacity="1"><g transform="translate(62.29781, 47.243145)"><g><path d="M 4.59375 0.15625 C 3.757812 0.15625 3.039062 -0.0195312 2.4375 -0.375 C 1.832031 -0.726562 1.367188 -1.222656 1.046875 -1.859375 C 0.734375 -2.492188 0.578125 -3.226562 0.578125 -4.0625 C 0.578125 -4.894531 0.738281 -5.625 1.0625 -6.25 C 1.382812 -6.882812 1.84375 -7.378906 2.4375 -7.734375 C 3.039062 -8.097656 3.757812 -8.28125 4.59375 -8.28125 C 5.300781 -8.28125 5.921875 -8.148438 6.453125 -7.890625 C 6.992188 -7.628906 7.421875 -7.265625 7.734375 -6.796875 C 8.046875 -6.328125 8.21875 -5.78125 8.25 -5.15625 L 6.109375 -5.15625 C 6.046875 -5.5625 5.882812 -5.890625 5.625 -6.140625 C 5.375 -6.390625 5.039062 -6.515625 4.625 -6.515625 C 4.101562 -6.515625 3.679688 -6.300781 3.359375 -5.875 C 3.035156 -5.457031 2.875 -4.863281 2.875 -4.09375 C 2.875 -3.3125 3.03125 -2.707031 3.34375 -2.28125 C 3.664062 -1.851562 4.09375 -1.640625 4.625 -1.640625 C 5.007812 -1.640625 5.332031 -1.753906 5.59375 -1.984375 C 5.863281 -2.222656 6.035156 -2.5625 6.109375 -3 L 8.25 -3 C 8.207031 -2.375 8.035156 -1.820312 7.734375 -1.34375 C 7.429688 -0.875 7.015625 -0.503906 6.484375 -0.234375 C 5.953125 0.0234375 5.320312 0.15625 4.59375 0.15625 Z M 4.59375 0.15625 "/></g></g></g><g fill="#000000" fill-opacity="1"><g transform="translate(71.096554, 47.243145)"><g><path d="M 4.625 0.15625 C 3.789062 0.15625 3.066406 -0.015625 2.453125 -0.359375 C 1.847656 -0.703125 1.382812 -1.1875 1.0625 -1.8125 C 0.738281 -2.4375 0.578125 -3.179688 0.578125 -4.046875 C 0.578125 -4.890625 0.738281 -5.628906 1.0625 -6.265625 C 1.382812 -6.898438 1.84375 -7.394531 2.4375 -7.75 C 3.039062 -8.101562 3.738281 -8.28125 4.53125 -8.28125 C 5.257812 -8.28125 5.910156 -8.125 6.484375 -7.8125 C 7.066406 -7.507812 7.523438 -7.050781 7.859375 -6.4375 C 8.203125 -5.820312 8.375 -5.050781 8.375 -4.125 L 8.375 -3.5 L 2.8125 -3.5 C 2.8125 -2.894531 2.976562 -2.414062 3.3125 -2.0625 C 3.644531 -1.707031 4.097656 -1.53125 4.671875 -1.53125 C 5.046875 -1.53125 5.367188 -1.609375 5.640625 -1.765625 C 5.921875 -1.929688 6.117188 -2.171875 6.234375 -2.484375 L 8.328125 -2.34375 C 8.171875 -1.582031 7.765625 -0.972656 7.109375 -0.515625 C 6.460938 -0.0664062 5.632812 0.15625 4.625 0.15625 Z M 2.8125 -4.90625 L 6.25 -4.90625 C 6.238281 -5.394531 6.078125 -5.796875 5.765625 -6.109375 C 5.460938 -6.429688 5.066406 -6.59375 4.578125 -6.59375 C 4.078125 -6.59375 3.664062 -6.425781 3.34375 -6.09375 C 3.019531 -5.769531 2.84375 -5.375 2.8125 -4.90625 Z M 2.8125 -4.90625 "/></g></g></g><g fill="#000000" fill-opacity="1"><g transform="translate(80.049579, 47.243145)"><g><path d="M 7.703125 -5.84375 L 5.625 -5.71875 C 5.570312 -5.976562 5.429688 -6.203125 5.203125 -6.390625 C 4.972656 -6.578125 4.660156 -6.671875 4.265625 -6.671875 C 3.910156 -6.671875 3.609375 -6.597656 3.359375 -6.453125 C 3.117188 -6.304688 3.003906 -6.109375 3.015625 -5.859375 C 3.003906 -5.671875 3.078125 -5.507812 3.234375 -5.375 C 3.398438 -5.238281 3.671875 -5.128906 4.046875 -5.046875 L 5.53125 -4.75 C 7.101562 -4.425781 7.890625 -3.6875 7.890625 -2.53125 C 7.890625 -2 7.734375 -1.53125 7.421875 -1.125 C 7.109375 -0.71875 6.675781 -0.398438 6.125 -0.171875 C 5.582031 0.046875 4.957031 0.15625 4.25 0.15625 C 3.164062 0.15625 2.300781 -0.0664062 1.65625 -0.515625 C 1.019531 -0.972656 0.648438 -1.59375 0.546875 -2.375 L 2.765625 -2.484375 C 2.835938 -2.148438 3.003906 -1.894531 3.265625 -1.71875 C 3.523438 -1.550781 3.851562 -1.46875 4.25 -1.46875 C 4.65625 -1.46875 4.976562 -1.546875 5.21875 -1.703125 C 5.457031 -1.859375 5.582031 -2.054688 5.59375 -2.296875 C 5.582031 -2.703125 5.226562 -2.976562 4.53125 -3.125 L 3.125 -3.40625 C 1.539062 -3.71875 0.753906 -4.492188 0.765625 -5.734375 C 0.753906 -6.523438 1.066406 -7.144531 1.703125 -7.59375 C 2.335938 -8.050781 3.175781 -8.28125 4.21875 -8.28125 C 5.257812 -8.28125 6.078125 -8.0625 6.671875 -7.625 C 7.265625 -7.1875 7.609375 -6.59375 7.703125 -5.84375 Z M 7.703125 -5.84375 "/></g></g></g></svg>